<?xml version="1.0" encoding="utf-8"?>
<!-- Generator: Adobe Illustrator 26.0.2, SVG Export Plug-In . SVG Version: 6.00 Build 0)  -->
<svg version="1.1" id="Layer_1" xmlns="http://www.w3.org/2000/svg" xmlns:xlink="http://www.w3.org/1999/xlink" x="0px" y="0px"
	 viewBox="0 0 257 102" style="enable-background:new 0 0 257 102;" xml:space="preserve">
<style type="text/css">
	.st0{fill-rule:evenodd;clip-rule:evenodd;fill:#F5F3ED;}
	.st1{fill:#F5F3ED;}
</style>
<path class="st0" d="M118.5,2.4c-2.8,0.4-5.6,1.2-9.9,2.6L108,3.3c4.3-1.4,7.3-2.2,10.2-2.7c3-0.5,5.9-0.6,10.2-0.6
	c8.7,0,14.1,0.5,20.5,3.3L148.2,5c-6-2.7-11.1-3.1-19.7-3.1C124.1,1.8,121.3,2,118.5,2.4z"/>
<path class="st1" d="M99,3h11.5l1.5,0.7h-0.6l-1.2,0.7L109.3,5h-8.9L99,3z"/>
<path class="st1" d="M158,3h-11.5L145,3l0.6,0.7l1.2,0.7l0.9,0.5h8.9L158,3z"/>
<path class="st1" d="M2.3,44.6c0.4,0.8,1,2.2,1.8,4.1l8.5,20.8h1.3L21.3,47c0.5-1.7,1-2.8,1.5-3.4c0,0,0-0.1,0.1-0.1l0.1,0h-0.1
	l0.2,0v-0.2h-3.2v0.2h0.3c0,0,0,0.1,0,0.2c0,0.1,0,0.2,0,0.3c0,1.1-0.4,2.6-1,4.7l-5.1,15.8L7.4,47.8c-0.8-2-1.2-3.3-1.2-4.1v-0.2
	l0.1-0.1H6.2l0.3,0v-0.2H1.3v0.2l0.2,0H1.4C1.7,43.6,2,44,2.3,44.6z M33,68.8h-0.2c0-0.1-0.1-0.2-0.1-0.2c-0.1-0.2-0.2-0.6-0.2-1
	c-0.1-0.9-0.2-2.3-0.2-4.1V48.8c0-1.9,0.1-3.3,0.2-4.2c0-0.4,0.1-0.7,0.2-0.9l0.1-0.2H33v-0.2h-4.8v0.2h0.2l0.1,0.2
	c0.1,0.2,0.2,0.6,0.2,0.9c0.1,0.9,0.2,2.4,0.2,4.2v14.7c0,1.8-0.1,3.2-0.2,4.1c0,0.4-0.1,0.8-0.2,1c0,0,0,0,0,0.1c0,0,0,0.1,0,0.1
	h-0.2V69H33V68.8z M39.8,43.4H40c0,0.1,0.1,0.1,0.1,0.2c0.1,0.2,0.2,0.5,0.2,0.9c0.1,1,0.2,2.4,0.2,4.3v14.7c0,1.9-0.1,3.3-0.2,4.3
	c0,0.4-0.1,0.7-0.2,0.9L40,68.8h-0.2V69h15.7v-0.1c0-0.3,0.2-1.3,0.3-1.8l-0.6,0c-0.2,0.7-2.3,1.1-6.4,1.1h-5V48.8
	c0-2.8,0.1-4.5,0.4-5.2l0.1-0.2h0.2v-0.2h-4.8V43.4z M60.7,43.4h0.2c0,0.1,0.1,0.1,0.1,0.2c0.1,0.2,0.2,0.5,0.2,0.9
	c0.1,1,0.2,2.4,0.2,4.3v14.7c0,1.9-0.1,3.3-0.2,4.3c0,0.4-0.1,0.7-0.2,0.9l-0.1,0.2h-0.2V69h15.7v-0.1c0-0.3,0.2-1.3,0.3-1.8l-0.6,0
	c-0.2,0.7-2.3,1.1-6.4,1.1h-5V48.8c0-2.8,0.1-4.5,0.4-5.2l0.1-0.2h0.2v-0.2h-4.8V43.4z M81.6,64.1c-0.8,2.2-1.4,3.7-1.9,4.4l-0.1,0
	l-0.1,0.1c0,0,0,0.1-0.1,0.1l-0.2,0V69h3.1v-0.2l-0.2,0c0,0,0-0.1,0-0.1v-0.2c0-0.5,0.2-1.5,0.6-3c0.2-1,0.7-2.6,1.5-5h9.4
	c0.1,0.4,0.3,1,0.6,1.6c0.3,0.7,0.5,1.1,0.5,1.3c0.5,1.3,0.8,2.3,1,3c0.3,0.9,0.4,1.6,0.4,2v0.2c0,0,0,0.1,0,0.1l-0.2,0.1V69h5.2
	v-0.2l-0.2,0l-0.1-0.1l-0.1-0.2c-0.5-0.7-1.1-1.9-1.8-3.7l-8.6-22.2H89L81.6,64.1z M93.3,59.6h-8.8l4.2-12.3L93.3,59.6z M120.1,68.8
	h-0.3c-0.5-0.3-0.7-2-0.7-5.3v-6.6c2.2,0,3.8,0,4.8,0.1c2.3,0.1,3.3,0.3,3.1,0.6l0,0.1h0.6v-2.3H127l0,0.1c0.2,0.2-0.7,0.4-2.7,0.5
	c-1.1,0.1-2.5,0.1-4.2,0.1h-1.1V44h5.5c3.3,0,6.8,0.3,6.5,1.1v0.1h0.6v-2H115v0.2h0.2c0,0,0,0,0,0.1v0l0,0.1l0,0.1
	c0,0.2,0.1,0.4,0.2,0.9c0.1,1.2,0.2,2.6,0.2,4.2v14.7c0,1.6-0.1,3-0.2,4.2c0,0.4-0.1,0.7-0.2,0.9c0,0.1-0.1,0.2-0.1,0.2l0,0H115V69
	h5.2V68.8z M135.5,43.4h0.2l0.1,0.1c0,0,0,0.1,0,0.2c0.3,0.7,0.4,2.4,0.4,5v14.7c0,2.7-0.1,4.4-0.4,5c0,0.1,0,0.2-0.1,0.3h-0.2V69
	h4.7v-0.2H140c-0.1-0.1-0.1-0.2-0.1-0.3c-0.1-0.2-0.2-0.5-0.2-0.9c-0.1-0.9-0.2-2.3-0.2-4.1v-5.8h3l6.4,7.2l1.5,1.7
	c0.9,1.1,1.7,1.8,2.5,2s1.9,0.4,3.4,0.4h1.5v-0.8h-0.3c-0.7,0-1.3-0.3-2-0.9c-0.3-0.3-0.8-0.9-0.8-1l-0.8-1l-7.2-8.1
	c2.6-0.6,4.5-1.9,5.3-3.4c0.8-1.5,1-2.5,1-3.6c0-2.3-0.8-4.1-2.5-5.3c-1.6-1.2-3.6-1.8-6-1.8h-9V43.4z M144.5,44.1
	c1.6,0,2.8,0.6,3.6,1.8c0.8,1.2,1.3,2.7,1.3,4.4c0,3.7-2.4,6.4-6,6.4h-3.9V44.1H144.5z M161.3,64.1c-0.8,2.2-1.4,3.7-1.9,4.4l-0.1,0
	l-0.1,0.1c0,0,0,0.1-0.1,0.1l-0.2,0V69h3.1v-0.2l-0.2,0c0,0,0-0.1,0-0.1v-0.2c0-0.5,0.2-1.5,0.6-3c0.2-1,0.7-2.6,1.5-5h9.4
	c0.1,0.4,0.3,1,0.6,1.6s0.5,1.1,0.5,1.3c0.5,1.3,0.8,2.3,1,3c0.3,0.9,0.4,1.6,0.4,2v0.2c0,0,0,0.1,0,0.1l-0.2,0.1V69h5.2v-0.2
	l-0.2,0l-0.1-0.1l-0.1-0.2c-0.5-0.7-1.1-1.9-1.8-3.7L170,42.6h-1.2L161.3,64.1z M173,59.6h-8.8l4.2-12.3L173,59.6z M184.3,69h2.8
	v-0.2h-0.2l-0.1-0.2c0-0.1-0.1-0.4-0.2-0.9c-0.1-1.2-0.2-2.6-0.2-4.2V46.8l16.5,22.8l0,0.1h1.2V48.8c0-1.9,0-3.3,0.2-4.2
	c0-0.3,0.1-0.6,0.2-0.9c0,0,0-0.2,0.1-0.2l0.2,0v-0.2H202v0.2h0.2c0,0,0,0.1,0.1,0.2c0,0.1,0.1,0.4,0.2,0.9c0.1,0.9,0.2,2.3,0.2,4.2
	v14.9l-14.7-20.4h-3.6v0.2h0.2c0.1,0.2,0.2,0.6,0.3,1.1c0.1,0.9,0.2,2.3,0.2,4.2v14.7c0,3-0.2,4.8-0.5,5.3l-0.2,0V69z M231.8,45.2
	c-3.6-1.5-7-2.2-10.1-2.2c-4,0-7.2,1.2-9.7,3.5s-3.7,5.5-3.7,9.6s1.2,7.2,3.7,9.6c2.5,2.4,5.7,3.5,9.7,3.5c3.6,0,6.8-0.7,9.6-2
	l0.5-0.2c0.2-0.1,0.3-0.2,0.3-0.2V65h-0.6c-0.2,0.4-0.3,0.8-0.4,0.9c-0.6,0.8-2,1.4-4.1,1.8c-2.1,0.4-3.9,0.6-5.4,0.6
	c-4.2,0-7.4-2.8-8.7-6.4c-0.7-1.8-1-3.8-1-5.9c0-4.2,1.2-8,4.2-10.4c1.5-1.2,3.3-1.8,5.4-1.8c1.8,0,3.8,0.2,5.8,0.8
	c2.1,0.5,3.4,1.3,3.9,2.3c0,0,0.1,0.2,0.1,0.3h0.6V46v-0.6C232.1,45.4,232,45.3,231.8,45.2z M237.1,64.1c-0.8,2.2-1.4,3.7-1.9,4.4
	l-0.1,0l-0.1,0.1c0,0,0,0.1-0.1,0.1l-0.2,0V69h3.1v-0.2l-0.2,0c0,0,0-0.1,0-0.1v-0.2c0-0.5,0.2-1.5,0.6-3c0.2-1,0.7-2.6,1.5-5h9.4
	c0.1,0.4,0.3,1,0.6,1.6s0.5,1.1,0.5,1.3c0.5,1.3,0.8,2.3,1,3c0.3,0.9,0.4,1.6,0.4,2v0.2c0,0,0,0.1,0,0.1l-0.2,0.1V69h5.2v-0.2
	l-0.2,0l-0.1-0.1l-0.1-0.2c-0.5-0.7-1.1-1.9-1.8-3.7l-8.6-22.2h-1.2L237.1,64.1z M248.8,59.6H240l4.2-12.3L248.8,59.6z"/>
<path class="st1" d="M95.3,30.8l0.9-0.9l-1.7-1.6c0.9-1.1,1.3-2.6,1.3-4.2c0-3.2-1.7-6-5.5-6c-3.7,0-5.5,2.8-5.5,6s1.7,6,5.5,6
	c1.3,0,2.4-0.4,3.2-1L95.3,30.8z M90.4,28.8c-2.8,0-4-2.1-4-4.6c0-2.5,1.2-4.6,4-4.6c2.8,0,4,2.1,4,4.6c0,1.2-0.3,2.3-0.9,3.1
	l-1.8-1.7l-1,0.9l1.8,1.7C92.1,28.5,91.3,28.8,90.4,28.8z M102.9,30.1c2.9,0,4.3-1.8,4.3-4.7v-7.2h-1.5v7.1c0,2.2-0.8,3.4-2.8,3.4
	c-2.1,0-2.8-1.2-2.8-3.3v-7.1h-1.5v7.3C98.6,28.4,100,30.1,102.9,30.1z M110.5,30h1.5V18.3h-1.5V30z M122.5,18.3v9.3l-5.5-9.3h-1.5
	V30h1.4v-9.4l5.5,9.4h1.5V18.3H122.5z M130,30h1.5V19.6h4v-1.3H126v1.3h4V30z M135.1,30h1.6l1-2.7h4.9l1,2.7h1.6l-4.5-11.7h-1.2
	L135.1,30z M138.2,26l2-5.6l2,5.6H138.2z M151.6,30h3.2c3.9,0,6-2.1,6-5.8c0-3.8-2.1-6-6-6h-3.2V30z M153.1,28.7v-9h1.8
	c3.2,0,4.6,1.4,4.6,4.5c0,3.1-1.8,4.5-4.7,4.5H153.1z M163.6,30h7.7v-1.4H165v-3.8h5.7v-1.4H165v-3.8h6.2v-1.3h-7.7V30z"/>
<path class="st1" d="M65.7,97h1.5v-5h1.9c2.4,0,4-1.2,4-3.3s-1.6-3.4-4-3.4h-3.4V97z M67.2,90.6v-3.9h1.9c1.7,0,2.6,0.7,2.6,2
	c0,1.3-0.8,1.9-2.6,1.9H67.2z M75.7,97h7.7v-1.4h-6.3v-3.8h5.7v-1.4h-5.7v-3.8h6.3v-1.3h-7.7V97z M89.3,97.1c2.2,0,3.9-1.3,3.9-3.4
	c0-3.9-5.9-3-5.9-5.6c0-1,0.8-1.7,1.9-1.7c1,0,1.7,0.5,2.2,1.4l1.2-0.7c-0.8-1.4-2-1.9-3.4-1.9c-1.9,0-3.4,1.2-3.4,3.1
	c0,3.7,5.9,2.8,5.9,5.6c0,1.1-0.9,2-2.4,2c-1.5,0-2.6-0.8-2.8-2.4l-1.4,0.4C85.4,96,87.3,97.1,89.3,97.1z M100.3,97.1
	c3.7,0,5.5-2.8,5.5-6s-1.7-6-5.5-6c-3.7,0-5.5,2.8-5.5,6S96.6,97.1,100.3,97.1z M100.3,95.8c-2.8,0-3.9-2.2-3.9-4.7
	c0-2.5,1.1-4.7,3.9-4.7c2.8,0,3.9,2.2,3.9,4.7C104.3,93.7,103.1,95.8,100.3,95.8z M112.8,97h3.2c3.9,0,6-2.1,6-5.8c0-3.8-2.1-6-6-6
	h-3.2V97z M114.2,95.7v-9h1.8c3.2,0,4.6,1.4,4.6,4.5c0,3.1-1.8,4.5-4.7,4.5H114.2z M122.9,97h1.6l1-2.7h4.9l1,2.7h1.6l-4.5-11.7
	h-1.2L122.9,97z M125.9,93l2-5.6l2,5.6H125.9z M139.4,97h1.5v-5.2h1.4c0.2,0,0.5,0,0.7,0l3,5.2h1.7l-3.3-5.4c1.5-0.4,2.4-1.5,2.4-3
	c0-2.1-1.7-3.3-4-3.3h-3.5V97z M140.8,90.6v-4h2c1.6,0,2.5,0.8,2.5,2c0,1.2-0.9,1.9-2.4,2H140.8z M153.1,84.2h1.1l2.3-2.4h-1.5
	L153.1,84.2z M149.9,97h7.7v-1.4h-6.2v-3.8h5.7v-1.4h-5.7v-3.8h6.2v-1.3h-7.7V97z M165,97.1c1.7,0,3.1-0.8,3.8-2.1l0.1,2h1.2v-6.1
	h-4.2V92h2.8l0,0.8c-0.3,2-1.6,3-3.6,3c-2.8,0-4-2.1-4-4.8c0-2.7,1.3-4.7,4-4.7c1.7,0,3,0.8,3.6,2.5l1.3-0.5
	c-0.9-2.1-2.6-3.2-4.9-3.2c-3.7,0-5.5,2.6-5.5,6C159.5,94.5,161.4,97.1,165,97.1z M177.1,97.1c2.9,0,4.3-1.8,4.3-4.7v-7.2H180v7.1
	c0,2.2-0.8,3.4-2.8,3.4c-2.1,0-2.8-1.2-2.8-3.3v-7.1h-1.5v7.3C172.9,95.4,174.2,97.1,177.1,97.1z M182.9,97h1.6l1-2.7h4.9l1,2.7h1.6
	l-4.5-11.7h-1.2L182.9,97z M185.9,93l2-5.6l2,5.6H185.9z"/>
</svg>
